 http://img703.imageshack.us/img703/2272/6rn1a0.jpg

Country.......: Germany, Hungary, France
Genre.........: Romance, Drama
Date release..: 15.07.2010 [World]
Director......: Benedek Fliegauf
Writers.......: Benedek Fliegauf
Duration......: 108 min.
More..........: http://www.imdb.com/title/tt1216520
Trailer.......: http://www.imdb.com/video/imdblink/vi1683463449
Trailer.......:

Pilot :
A woman's consuming love forces her to bear the clone of her dead beloved. From his infancy to manhood, she faces the unavoidable complexities of her controversial decision. 

Cats :
Eva Green   	 ...  	Rebecca
Matt Smith 	... 	Thomas
Lesley Manville 	... 	Judith
Peter Wight 	... 	Ralph
Istvan Lenart 	... 	Henry
Hannah Murray 	... 	Monica
Ruby O. Fee 	... 	Rebecca 9 years
Tristan Christopher 	... 	Thomas 10 years
Jesse Hoffmann 	... 	Thomas 5 years
Natalia Tena 	... 	Rose
Ella Smith 	... 	Molly
Wunmi Mosaku 	... 	Erica
Alexander Goeller 	... 	Marc
Gina Stiebitz 	... 	Dima
Adrian Wahlen 	... 	Eric 

Data Technical :
!!! SAMPLE !!!
Audio.....: English
Subtitles.: None
[ CD1 ]
Format                           : AVI
Format/Info                      : Audio Video Interleave
File size                        : 699 MiB
Duration                         : 53mn 45s
Overall bit rate                 : 1 819 Kbps
Writing application              : Nandub v1.0rc2
Writing library                  : Nandub build 1853/release
Video
ID                               : 0
Format                           : MPEG-4 Visual
Format profile                   : Advanced Simple@L5
Format settings, BVOP            : Yes
Format settings, QPel            : No
Format settings, GMC             : No warppoints
Format settings, Matrix          : Default (H.263)
Codec ID                         : XVID
Codec ID/Hint                    : XviD
Duration                         : 53mn 45s
Bit rate                         : 1 364 Kbps
Width                            : 640 pixels
Height                           : 272 pixels
Display aspect ratio             : 2.35:1
Frame rate                       : 25.000 fps
Color space                      : YUV
Chroma subsampling               : 4:2:0
Bit depth                        : 8 bits
Scan type                        : Progressive
Bits/(Pixel*Frame)               : 0.313
Stream size                      : 524 MiB (75%)
Writing library                  : XviD 1.2.1 (UTC 2008-12-04)
Audio
ID                               : 1
Format                           : AC-3
Format/Info                      : Audio Coding 3
Mode extension                   : CM (complete main)
Codec ID                         : 2000
Duration                         : 53mn 45s
Bit rate mode                    : Constant
Bit rate                         : 448 Kbps
Channel(s)                       : 6 channels
Channel positions                : Front: L C R, Side: L R, LFE
Sampling rate                    : 48.0 KHz
Bit depth                        : 16 bits
Stream size                      : 172 MiB (25%)
Alignment                        : Split accross interleaves
Interleave, duration             : 96 ms (2.40 video frames)
Interleave, preload duration     : 500 ms
[ CD2 ]
Format                           : AVI
Format/Info                      : Audio Video Interleave
File size                        : 702 MiB
Duration                         : 53mn 52s
Overall bit rate                 : 1 821 Kbps
Writing application              : Nandub v1.0rc2
Writing library                  : Nandub build 1853/release
Video
ID                               : 0
Format                           : MPEG-4 Visual
Format profile                   : Advanced Simple@L5
Format settings, BVOP            : Yes
Format settings, QPel            : No
Format settings, GMC             : No warppoints
Format settings, Matrix          : Default (H.263)
Codec ID                         : XVID
Codec ID/Hint                    : XviD
Duration                         : 53mn 52s
Bit rate                         : 1 367 Kbps
Width                            : 640 pixels
Height                           : 272 pixels
Display aspect ratio             : 2.35:1
Frame rate                       : 25.000 fps
Color space                      : YUV
Chroma subsampling               : 4:2:0
Bit depth                        : 8 bits
Scan type                        : Progressive
Bits/(Pixel*Frame)               : 0.314
Stream size                      : 527 MiB (75%)
Writing library                  : XviD 1.2.1 (UTC 2008-12-04)
Audio
ID                               : 1
Format                           : AC-3
Format/Info                      : Audio Coding 3
Mode extension                   : CM (complete main)
Codec ID                         : 2000
Duration                         : 53mn 52s
Bit rate mode                    : Constant
Bit rate                         : 448 Kbps
Channel(s)                       : 6 channels
Channel positions                : Front: L C R, Side: L R, LFE
Sampling rate                    : 48.0 KHz
Bit depth                        : 16 bits
Video delay                      : 8ms
Stream size                      : 173 MiB (25%)
Alignment                        : Split accross interleaves
Interleave, duration             : 96 ms (2.40 video frames)
Interleave, preload duration     : 500 ms

Screen : 
http://img198.imageshack.us/img198/5320/womb2010s1.jpg 
http://img835.imageshack.us/img835/7701/womb2010s2.jpg 
http://img97.imageshack.us/img97/245/womb2010s3.jpg 
http://img155.imageshack.us/img155/2824/womb2010s4.jpg 
http://img813.imageshack.us/img813/3121/womb2010s5.jpg